<svg width="108" height="109" xmlns="http://www.w3.org/2000/svg">
  <path d="M76.87 41.81a4.197 4.197 0 0 1-4.19 4.198 4.2 4.2 0 0 1-4.2-4.198V29.216a4.196 4.196 0 0 1 8.39 0V41.81zm0 37.78a4.197 4.197 0 0 1-4.19 4.198 4.2 4.2 0 0 1-4.2-4.198V58.601h-8.4a4.198 4.198 0 1 1 0-8.396h12.6c2.31 0 4.19 1.88 4.19 4.199V79.59zM47.49 58.601a4.198 4.198 0 1 1 0-8.396 4.198 4.198 0 0 1 0 8.396zm-8.4-4.197a4.196 4.196 0 0 1-8.39 0V29.216a4.196 4.196 0 1 1 8.39 0v25.188zm0 25.186a4.2 4.2 0 0 1-4.2 4.198c-2.31 0-4.19-1.88-4.19-4.198V66.996a4.196 4.196 0 1 1 8.39 0V79.59zM53.79.743C24.15.743.13 24.768.13 54.404c0 29.634 24.02 53.659 53.66 53.659 29.63 0 53.66-24.025 53.66-53.659C107.45 24.768 83.42.743 53.79.743z" fill-rule="evenodd"/>
</svg>
