<svg width="295" height="221" xmlns="http://www.w3.org/2000/svg">
  <g fill="#45B59C" fill-rule="evenodd">
    <path d="M90.58 220.275c-1.49-.48-2.89-1.291-4.2-2.437-.71-.639-1.07-1.344-1.07-2.116 0-.612.22-1.151.67-1.617.46-.466 1-.699 1.64-.699.51 0 .96.16 1.36.479 1.06.878 2.1 1.518 3.11 1.917 1.02.399 2.21.599 3.6.599 1.49 0 2.77-.332 3.85-.998 1.08-.665 1.62-1.492 1.62-2.477 0-1.197-.53-2.136-1.6-2.815-1.06-.679-2.75-1.191-5.07-1.538-5.83-.851-8.74-3.567-8.74-8.146 0-1.678.43-3.136 1.31-4.373.88-1.238 2.08-2.183 3.6-2.836 1.51-.651 3.2-.979 5.07-.979 1.68 0 3.25.254 4.73.759 1.48.507 2.71 1.172 3.7 1.997.77.614 1.15 1.319 1.15 2.117 0 .613-.22 1.152-.68 1.618-.45.466-.98.698-1.59.698-.4 0-.76-.119-1.08-.359-.69-.559-1.66-1.072-2.9-1.538-1.23-.465-2.35-.699-3.33-.699-1.68 0-2.98.314-3.9.939-.91.626-1.37 1.444-1.37 2.456 0 1.145.47 2.011 1.42 2.596.94.585 2.42 1.065 4.45 1.437 2.29.399 4.12.913 5.49 1.538 1.37.626 2.4 1.478 3.09 2.556.7 1.078 1.04 2.51 1.04 4.293 0 1.677-.47 3.148-1.42 4.413-.94 1.264-2.2 2.236-3.77 2.915-1.57.679-3.26 1.018-5.07 1.018-1.92 0-3.62-.239-5.11-.718M125.74 205.418c.49-.425.89-.978 1.2-1.657.3-.679.46-1.391.46-2.137a5.23 5.23 0 0 0-.46-2.135c-.31-.68-.71-1.225-1.2-1.638-.49-.412-.99-.619-1.5-.619h-6.95v8.826h6.95c.51 0 1.01-.213 1.5-.64zm2.38-11.56c1.22.812 2.21 1.903 2.95 3.274.75 1.371 1.12 2.869 1.12 4.492 0 1.598-.37 3.089-1.12 4.474-.74 1.384-1.73 2.482-2.95 3.294-1.23.812-2.52 1.219-3.88 1.219h-6.95v7.546c0 .72-.21 1.306-.64 1.758-.42.453-.98.679-1.67.679-.67 0-1.22-.232-1.64-.699-.43-.465-.64-1.044-.64-1.738v-23.082c0-.692.23-1.271.7-1.737.46-.466 1.04-.699 1.74-.699h9.1c1.36 0 2.65.406 3.88 1.219zM143.01 209.732H151l-4.04-9.345-3.95 9.345zm16.45 8.706c0 .692-.22 1.258-.67 1.697-.46.439-.98.658-1.56.658-.48 0-.91-.146-1.3-.438-.39-.293-.68-.693-.9-1.199l-2.07-4.832h-11.91l-2.07 4.873c-.19.505-.48.898-.86 1.177-.39.28-.81.419-1.26.419-.69 0-1.22-.186-1.58-.558-.36-.373-.53-.879-.53-1.518 0-.239.04-.492.12-.759l9.94-23.882c.21-.532.53-.944.96-1.237.42-.293.9-.413 1.44-.359.47 0 .92.139 1.33.419.42.279.71.673.9 1.177l9.83 23.403c.13.346.19.666.19.959zM185.62 196.033c0 .56-.2 1.106-.6 1.638-.42.559-.97.839-1.63.839-.46 0-.91-.12-1.36-.359-1.31-.613-2.72-.919-4.23-.919-1.87 0-3.49.393-4.88 1.177a7.986 7.986 0 0 0-3.19 3.316c-.75 1.424-1.12 3.055-1.12 4.891 0 3.142.85 5.526 2.54 7.149 1.69 1.624 3.9 2.436 6.65 2.436 1.62 0 3.03-.305 4.23-.919.48-.212.9-.319 1.28-.319.69 0 1.27.293 1.75.879.4.506.6 1.052.6 1.637 0 .427-.1.812-.32 1.158-.21.347-.52.613-.92.799a14.578 14.578 0 0 1-6.62 1.557c-2.61 0-5.01-.552-7.19-1.657-2.19-1.104-3.93-2.735-5.23-4.892-1.31-2.157-1.96-4.765-1.96-7.828 0-2.715.62-5.151 1.86-7.307 1.23-2.157 2.94-3.841 5.13-5.052 2.18-1.212 4.64-1.817 7.39-1.817 2.37 0 4.56.518 6.58 1.557.83.426 1.24 1.105 1.24 2.036M209.56 216.7c.47.466.7 1.005.7 1.618 0 .666-.23 1.212-.7 1.637-.46.426-1.04.639-1.73.639h-13.38c-.69 0-1.27-.232-1.74-.699-.46-.465-.7-1.044-.7-1.738v-23.082c0-.692.24-1.271.7-1.737.47-.466 1.05-.699 1.74-.699h13.38c.69 0 1.27.22 1.73.659.47.44.7 1.005.7 1.697 0 .666-.22 1.205-.68 1.618-.45.413-1.03.619-1.75.619H197v6.789h9.03c.69 0 1.27.219 1.74.659.46.439.7 1.005.7 1.697 0 .666-.23 1.205-.68 1.617-.46.413-1.04.62-1.76.62H197v7.387h10.83c.69 0 1.27.234 1.73.699M170.87 41.81a4.197 4.197 0 0 1-4.19 4.198 4.2 4.2 0 0 1-4.2-4.198V29.216a4.196 4.196 0 0 1 8.39 0V41.81zm0 37.78a4.197 4.197 0 0 1-4.19 4.198 4.2 4.2 0 0 1-4.2-4.198V58.601h-8.4a4.198 4.198 0 1 1 0-8.396h12.6c2.31 0 4.19 1.88 4.19 4.199V79.59zm-29.38-20.989a4.198 4.198 0 1 1 0-8.396 4.198 4.198 0 0 1 0 8.396zm-8.4-4.197a4.196 4.196 0 0 1-8.39 0V29.216a4.196 4.196 0 1 1 8.39 0v25.188zm0 25.186a4.2 4.2 0 0 1-4.2 4.198c-2.31 0-4.19-1.88-4.19-4.198V66.996a4.196 4.196 0 1 1 8.39 0V79.59zM147.79.743c-29.64 0-53.66 24.025-53.66 53.661 0 29.634 24.02 53.659 53.66 53.659 29.63 0 53.66-24.025 53.66-53.659 0-29.636-24.03-53.661-53.66-53.661zM38.24 165.323h7.98l-4.03-9.344-3.95 9.344zm16.45 8.707c0 .692-.23 1.257-.68 1.697-.45.439-.97.658-1.56.658-.48 0-.91-.146-1.29-.438-.39-.293-.69-.693-.9-1.199l-2.08-4.832h-11.9l-2.08 4.872c-.18.506-.47.899-.86 1.178-.38.279-.8.419-1.25.419-.7 0-1.22-.187-1.58-.559-.36-.373-.54-.878-.54-1.517 0-.239.04-.492.12-.759l9.94-23.882c.22-.532.54-.944.96-1.237.43-.293.91-.413 1.44-.359.48 0 .93.139 1.34.418.41.28.71.673.9 1.178l9.82 23.403c.13.346.2.666.2.959zM80.85 151.625c0 .56-.2 1.106-.6 1.638-.43.559-.97.839-1.64.839-.45 0-.9-.12-1.36-.36-1.3-.612-2.71-.919-4.23-.919-1.86 0-3.49.394-4.87 1.178-1.39.786-2.45 1.892-3.2 3.316-.74 1.423-1.11 3.054-1.11 4.891 0 3.142.84 5.526 2.53 7.149 1.69 1.624 3.91 2.436 6.65 2.436 1.62 0 3.04-.305 4.23-.919.48-.213.91-.319 1.28-.319.69 0 1.28.293 1.76.879.4.506.6 1.052.6 1.637 0 .426-.11.812-.32 1.158-.21.346-.52.613-.92.799a14.65 14.65 0 0 1-6.63 1.557c-2.61 0-5-.553-7.19-1.657-2.18-1.105-3.92-2.735-5.23-4.893-1.3-2.156-1.96-4.764-1.96-7.827 0-2.716.62-5.151 1.86-7.307a13.2 13.2 0 0 1 5.13-5.052c2.19-1.212 4.65-1.818 7.39-1.818 2.37 0 4.57.519 6.59 1.558.83.426 1.24 1.105 1.24 2.036M109.04 172.811c.11.306.16.593.16.859a2.28 2.28 0 0 1-.82 1.797c-.54.48-1.17.719-1.89.719-.35 0-.68-.08-1-.239a2.162 2.162 0 0 1-.8-.68l-8.67-11.421-3.79 3.634v6.269c0 .72-.23 1.306-.7 1.758-.46.453-1.07.679-1.82.679-.71 0-1.31-.233-1.77-.699-.47-.465-.7-1.044-.7-1.738v-23.082c0-.692.24-1.271.72-1.737.48-.466 1.09-.699 1.83-.699.72 0 1.31.226 1.76.679.45.453.68 1.038.68 1.757v10.863l12.78-12.581c.61-.611 1.26-.918 1.96-.918.61 0 1.13.253 1.55.759.43.506.64 1.038.64 1.598 0 .559-.24 1.078-.72 1.557l-8.7 8.306 8.9 11.781c.16.214.3.473.4.779M133.1 172.292c.47.466.7 1.005.7 1.617 0 .666-.23 1.212-.7 1.638-.46.426-1.04.639-1.73.639h-13.38c-.7 0-1.27-.233-1.74-.699-.47-.465-.7-1.044-.7-1.738v-23.082c0-.692.23-1.271.7-1.737.47-.466 1.04-.699 1.74-.699h13.38c.69 0 1.27.219 1.73.659.47.439.7 1.005.7 1.697 0 .666-.22 1.205-.68 1.617-.45.413-1.04.619-1.75.619h-10.83v6.79h9.03c.69 0 1.27.219 1.74.659.46.439.69 1.005.69 1.697 0 .666-.22 1.205-.67 1.617-.46.413-1.04.619-1.76.619h-9.03v7.388h10.83c.69 0 1.27.233 1.73.699M155.69 161.21c.45-.452.82-1.058 1.12-1.817.29-.759.44-1.577.44-2.456 0-.745-.15-1.431-.44-2.057-.3-.625-.67-1.124-1.12-1.497-.46-.373-.92-.56-1.4-.56h-8.75v9.066h8.75c.48 0 .94-.226 1.4-.679zm7.6 11.901c.21.346.3.706.3 1.078 0 .479-.16.919-.47 1.318-.4.48-1.02.719-1.84.719-.64 0-1.23-.147-1.76-.44-1.92-1.09-2.87-3.314-2.87-6.669 0-.959-.32-1.717-.94-2.276-.63-.56-1.53-.839-2.7-.839h-7.47v7.747c0 .72-.19 1.306-.58 1.758-.38.453-.89.679-1.53.679-.78 0-1.45-.233-2.02-.699-.57-.465-.86-1.044-.86-1.738v-23.082c0-.692.23-1.271.7-1.737.47-.466 1.04-.699 1.74-.699h11.5c1.38 0 2.69.373 3.91 1.118 1.23.746 2.21 1.771 2.94 3.075.73 1.305 1.1 2.77 1.1 4.393 0 1.332-.36 2.63-1.08 3.894-.72 1.265-1.65 2.27-2.8 3.015 1.68 1.172 2.6 2.742 2.76 4.713.08.425.12.838.12 1.237.1.826.21 1.418.32 1.777.1.36.34.633.72.819.34.214.62.493.81.839zM174.38 175.487c-.51.466-1.09.699-1.76.699-.72 0-1.31-.233-1.78-.699-.46-.465-.7-1.044-.7-1.738v-23.082c0-.692.24-1.271.72-1.737.48-.466 1.09-.699 1.84-.699.66 0 1.24.233 1.72.699.48.466.72 1.045.72 1.737v23.082c0 .694-.26 1.273-.76 1.738M206.05 148.87c.39.426.59.958.59 1.597v23.282c0 .694-.23 1.273-.69 1.738-.47.466-1.05.699-1.74.699-.38 0-.74-.06-1.1-.18-.36-.12-.62-.286-.78-.499l-14.66-18.61v17.052c0 .639-.2 1.172-.61 1.598-.42.426-.96.639-1.62.639-.64 0-1.16-.213-1.56-.639-.4-.426-.6-.959-.6-1.598v-23.282c0-.692.23-1.271.7-1.737.47-.466 1.05-.699 1.74-.699.4 0 .79.08 1.18.24.38.159.67.373.85.639l14.54 18.53v-17.173c0-.639.21-1.171.62-1.597.41-.425.94-.639 1.58-.639.64 0 1.16.214 1.56.639M237.55 148.87c.4.426.6.958.6 1.597v23.282c0 .694-.23 1.273-.7 1.738-.46.466-1.04.699-1.73.699-.38 0-.74-.06-1.1-.18-.36-.12-.62-.286-.78-.499l-14.66-18.61v17.052c0 .639-.2 1.172-.62 1.598-.41.426-.95.639-1.61.639-.64 0-1.16-.213-1.56-.639-.4-.426-.6-.959-.6-1.598v-23.282c0-.692.23-1.271.7-1.737.46-.466 1.04-.699 1.74-.699.4 0 .79.08 1.17.24.39.159.68.373.86.639l14.54 18.53v-17.173c0-.639.2-1.171.62-1.597.41-.425.94-.639 1.58-.639.63 0 1.15.214 1.55.639M263.85 172.292c.47.466.7 1.005.7 1.617 0 .666-.23 1.212-.7 1.638-.47.426-1.04.639-1.74.639h-13.37c-.7 0-1.28-.233-1.74-.699-.47-.465-.7-1.044-.7-1.738v-23.082c0-.692.23-1.271.7-1.737.46-.466 1.04-.699 1.74-.699h13.37c.7 0 1.27.219 1.74.659.47.439.7 1.005.7 1.697 0 .666-.23 1.205-.68 1.617-.45.413-1.04.619-1.76.619h-10.82v6.79h9.03c.69 0 1.27.219 1.73.659.47.439.7 1.005.7 1.697 0 .666-.22 1.205-.68 1.617-.45.413-1.03.619-1.75.619h-9.03v7.388h10.82c.7 0 1.27.233 1.74.699M294.06 148.87c.4.426.6.958.6 1.597v23.282c0 .694-.23 1.273-.7 1.738-.46.466-1.04.699-1.74.699-.37 0-.73-.06-1.09-.18-.36-.12-.62-.286-.78-.499l-14.66-18.61v17.052c0 .639-.21 1.172-.62 1.598-.41.426-.95.639-1.62.639-.63 0-1.15-.213-1.55-.639-.4-.426-.6-.959-.6-1.598v-23.282c0-.692.23-1.271.7-1.737.46-.466 1.04-.699 1.73-.699.4 0 .8.08 1.18.24.39.159.67.373.86.639l14.54 18.53v-17.173c0-.639.2-1.171.62-1.597.41-.425.93-.639 1.57-.639s1.16.214 1.56.639M6.94 162.118a2.01 2.01 0 1 1 4.019 0 2.01 2.01 0 0 1-4.019 0M2.92 148.051a2.01 2.01 0 0 0-2.01 2.01v12.057a2.01 2.01 0 0 0 4.02 0v-12.057c0-1.111-.9-2.01-2.01-2.01M2.92 166.137c-1.11 0-2.01.9-2.01 2.01v6.029a2.01 2.01 0 0 0 4.02 0v-6.029c0-1.11-.9-2.01-2.01-2.01M21.01 160.109h-6.03a2.01 2.01 0 1 0 0 4.019H19v10.048a2.01 2.01 0 0 0 4.02 0v-12.058c0-1.11-.9-2.009-2.01-2.009M21.01 148.051a2.01 2.01 0 0 0-2.01 2.01v6.028a2.01 2.01 0 0 0 4.02 0v-6.028c0-1.111-.9-2.01-2.01-2.01"/>
  </g>
</svg>
