<?xml version="1.0" standalone="no"?>
<!DOCTYPE svg PUBLIC "-//W3C//DTD SVG 20010904//EN"
 "http://www.w3.org/TR/2001/REC-SVG-20010904/DTD/svg10.dtd">
<svg version="1.0" xmlns="http://www.w3.org/2000/svg"
 width="450.000000pt" height="450.000000pt" viewBox="0 0 450.000000 450.000000"
 preserveAspectRatio="xMidYMid meet">
<metadata>
Created by potrace 1.11, written by Peter Selinger 2001-2013
</metadata>
<g transform="translate(0.000000,450.000000) scale(0.100000,-0.100000)"
fill="#000000" stroke="none">
<path d="M2168 4395 c-2 -1 -46 -5 -100 -9 -80 -5 -175 -20 -323 -51 -49 -11
-188 -56 -273 -89 -490 -189 -918 -585 -1141 -1057 -30 -63 -58 -123 -62 -134
-4 -11 -15 -38 -24 -60 -23 -56 -82 -262 -89 -310 -4 -22 -8 -47 -11 -55 -4
-14 -7 -38 -22 -160 -14 -118 -7 -430 13 -546 4 -27 7 -41 18 -99 3 -11 10
-42 16 -70 6 -27 13 -57 15 -65 11 -47 52 -168 87 -253 238 -583 726 -1037
1323 -1230 124 -40 255 -72 345 -82 19 -3 69 -9 110 -14 80 -9 392 -7 475 4
257 35 503 112 735 233 58 30 107 59 108 63 2 5 8 9 13 9 6 0 38 19 72 42 238
160 440 365 602 609 62 92 195 345 195 368 0 7 9 28 19 49 10 20 19 39 19 42
0 3 12 43 26 90 23 74 53 206 70 305 29 169 27 475 -4 670 -73 450 -296 876
-626 1196 -244 236 -539 411 -859 510 -76 23 -229 60 -275 65 -19 3 -46 7 -59
9 -70 12 -383 28 -393 20z m964 -1022 c46 -44 50 -74 50 -372 0 -285 -3 -311
-44 -362 -55 -68 -181 -66 -245 3 -40 43 -43 69 -43 365 0 316 3 331 65 378
66 51 156 46 217 -12z m-1558 33 c18 -8 46 -31 62 -52 l29 -37 3 -554 2 -554
-22 -40 c-29 -51 -77 -81 -136 -84 -70 -3 -138 40 -164 105 -15 37 -14 1076 1
1121 11 35 48 76 86 97 28 16 99 15 139 -2z m523 -1018 c105 -63 100 -228 -10
-285 -71 -36 -148 -22 -201 37 -20 22 -37 46 -37 53 -7 68 -4 97 12 129 44 87
151 117 236 66z m983 14 c40 -18 69 -48 86 -89 14 -33 16 -103 16 -543 0 -278
-1 -521 -1 -540 -1 -46 -46 -115 -87 -135 -69 -33 -135 -24 -188 24 -56 51
-56 53 -56 526 0 407 -1 435 -17 436 -10 0 -88 1 -173 1 -172 -1 -215 7 -259
44 -42 35 -65 113 -49 166 14 48 65 101 109 114 47 13 587 10 619 -4z m-1476
-526 c63 -48 66 -65 66 -384 0 -268 -1 -288 -21 -328 -25 -54 -99 -95 -156
-88 -89 11 -152 78 -154 164 -4 178 0 523 5 547 11 40 53 93 90 109 48 22 127
13 170 -20z"/>
</g>
</svg>
